<svg width="16" height="11" viewBox="0 0 16 11" fill="none" xmlns="http://www.w3.org/2000/svg">
<path id="Vector" d="M14.2789 0.0419056L0.778555 0.00222575C0.64187 0.00220548 0.507793 0.0353799 0.390754 0.098178C0.273715 0.160976 0.178148 0.251019 0.11434 0.358615C0.0505315 0.466213 0.0208968 0.587288 0.0286278 0.708811C0.0363578 0.830332 0.08116 0.947698 0.158211 1.04828L6.88286 9.75023C7.16155 10.111 7.83507 10.113 8.11664 9.75385L14.8923 1.09158C14.9707 0.991671 15.0169 0.874513 15.0258 0.752837C15.0347 0.631162 15.0059 0.509623 14.9427 0.401424C14.8795 0.293226 14.7842 0.202506 14.6671 0.139122C14.5501 0.0757391 14.4158 0.0421164 14.2789 0.0419056Z" fill="black"/>
</svg>
